<mxfile host="app.diagrams.net" agent="Mozilla/5.0 (Windows NT 10.0; Win64; x64) AppleWebKit/537.36 (KHTML, like Gecko) Chrome/140.0.0.0 Safari/537.36 Edg/140.0.0.0" version="28.2.5">
  <diagram id="-teP9IbRkN0PEPyZOTxG" name="ページ1">
    <mxGraphModel dx="1017" dy="460" grid="1" gridSize="10" guides="1" tooltips="1" connect="1" arrows="1" fold="1" page="1" pageScale="1" pageWidth="827" pageHeight="1169" math="0" shadow="0">
      <root>
        <mxCell id="0" />
        <mxCell id="1" parent="0" />
        <mxCell id="sFRxeDE_6suIDNdowpsp-2" value="顧客" style="shape=umlActor;verticalLabelPosition=bottom;verticalAlign=top;html=1;outlineConnect=0;" vertex="1" parent="1">
          <mxGeometry x="41" y="160" width="30" height="60" as="geometry" />
        </mxCell>
        <mxCell id="sFRxeDE_6suIDNdowpsp-5" value="商品詳細画面" style="shape=umlBoundary;whiteSpace=wrap;html=1;" vertex="1" parent="1">
          <mxGeometry x="160" y="120" width="60" height="60" as="geometry" />
        </mxCell>
        <mxCell id="sFRxeDE_6suIDNdowpsp-6" value="" style="endArrow=open;endFill=1;endSize=12;html=1;rounded=0;" edge="1" parent="1">
          <mxGeometry width="160" relative="1" as="geometry">
            <mxPoint x="77" y="177" as="sourcePoint" />
            <mxPoint x="156" y="157" as="targetPoint" />
          </mxGeometry>
        </mxCell>
        <mxCell id="sFRxeDE_6suIDNdowpsp-8" value="カートに&lt;div&gt;追加&lt;/div&gt;" style="ellipse;shape=umlControl;whiteSpace=wrap;html=1;" vertex="1" parent="1">
          <mxGeometry x="310" y="70" width="60" height="70" as="geometry" />
        </mxCell>
        <mxCell id="sFRxeDE_6suIDNdowpsp-9" value="" style="endArrow=open;endFill=1;endSize=12;html=1;rounded=0;" edge="1" parent="1">
          <mxGeometry width="160" relative="1" as="geometry">
            <mxPoint x="225" y="170" as="sourcePoint" />
            <mxPoint x="305" y="220" as="targetPoint" />
          </mxGeometry>
        </mxCell>
        <mxCell id="sFRxeDE_6suIDNdowpsp-10" value="カート&lt;div&gt;画面&lt;/div&gt;" style="ellipse;shape=umlEntity;whiteSpace=wrap;html=1;" vertex="1" parent="1">
          <mxGeometry x="462" y="75" width="60" height="60" as="geometry" />
        </mxCell>
        <mxCell id="sFRxeDE_6suIDNdowpsp-12" value="" style="endArrow=open;endFill=1;endSize=12;html=1;rounded=0;" edge="1" parent="1">
          <mxGeometry width="160" relative="1" as="geometry">
            <mxPoint x="374" y="110" as="sourcePoint" />
            <mxPoint x="453" y="110" as="targetPoint" />
          </mxGeometry>
        </mxCell>
        <mxCell id="sFRxeDE_6suIDNdowpsp-14" value="" style="endArrow=open;endFill=1;endSize=12;html=1;rounded=0;" edge="1" parent="1">
          <mxGeometry width="160" relative="1" as="geometry">
            <mxPoint x="294" y="234" as="sourcePoint" />
            <mxPoint x="214" y="184" as="targetPoint" />
          </mxGeometry>
        </mxCell>
        <mxCell id="sFRxeDE_6suIDNdowpsp-15" value="&lt;span style=&quot;font-weight: normal;&quot;&gt;&lt;font style=&quot;font-size: 18px;&quot;&gt;カートに追加&lt;/font&gt;&lt;/span&gt;" style="text;align=center;fontStyle=1;verticalAlign=middle;spacingLeft=3;spacingRight=3;strokeColor=none;rotatable=0;points=[[0,0.5],[1,0.5]];portConstraint=eastwest;html=1;" vertex="1" parent="1">
          <mxGeometry x="41" y="20" width="109" height="60" as="geometry" />
        </mxCell>
        <mxCell id="sFRxeDE_6suIDNdowpsp-16" value="" style="endArrow=block;startArrow=block;endFill=1;startFill=1;html=1;rounded=0;" edge="1" parent="1">
          <mxGeometry width="160" relative="1" as="geometry">
            <mxPoint x="230" y="140" as="sourcePoint" />
            <mxPoint x="300" y="120" as="targetPoint" />
          </mxGeometry>
        </mxCell>
        <mxCell id="sFRxeDE_6suIDNdowpsp-18" value="在庫不足画面" style="ellipse;shape=umlControl;whiteSpace=wrap;html=1;" vertex="1" parent="1">
          <mxGeometry x="310" y="200" width="60" height="70" as="geometry" />
        </mxCell>
        <mxCell id="sFRxeDE_6suIDNdowpsp-19" value="&lt;span style=&quot;font-weight: normal;&quot;&gt;在庫不足の場合&lt;/span&gt;" style="text;align=center;fontStyle=1;verticalAlign=middle;spacingLeft=3;spacingRight=3;strokeColor=none;rotatable=0;points=[[0,0.5],[1,0.5]];portConstraint=eastwest;html=1;" vertex="1" parent="1">
          <mxGeometry x="181" y="210" width="80" height="26" as="geometry" />
        </mxCell>
      </root>
    </mxGraphModel>
  </diagram>
</mxfile>
